<svg xmlns="http://www.w3.org/2000/svg" viewBox="0 0 99 99"><defs><style>.cls-1{fill:none;}.cls-2{fill:#8a8888;}.cls-3{fill:#fff;}.cls-4{fill:#c8d5e8;}.cls-5{fill:#b8b5b5;}.cls-6{fill:#5c5b5b;}.cls-7{fill:#f1f0f0;}.cls-8,.cls-9{fill:#b42125;}.cls-9{fill-rule:evenodd;}</style></defs><title>logo</title><g id="Layer_2" data-name="Layer 2"><g id="Layer_1-2" data-name="Layer 1"><rect class="cls-1" width="99" height="99"/><path class="cls-2" d="M26.86,43.1c.06.17.14.34.22.51-1.34,1.63-1.46,4.47-1.44,5.68a20.18,20.18,0,0,0,2.19,8.77c-.27,1.28-1.63,7.81-1.42,12.23.09,2.1.37,4.36.34,6.54a34.31,34.31,0,0,0,28.07,9.83L52.65,65.81c0-.69-.16-1.41-.28-2.16v-.07c-.2-1.31-.51-3.3-.22-4.16a7.46,7.46,0,0,1,2-2.32c1.45-1.29,3.63-3.23,4.09-6.22a1.83,1.83,0,0,1,.93-1.37,7.41,7.41,0,0,0,3.55-6.69,7.63,7.63,0,0,0-.89-3.56,4.52,4.52,0,0,0-.43-.74l-4.91-7.46-.08-.1,0,0a6.09,6.09,0,0,0,.4-3l-.37-3.26a6.29,6.29,0,0,0-1.87-3.93,6.09,6.09,0,0,0-9,.61c-.16.21-.31.42-.45.64a6.19,6.19,0,0,0-2.64-.28,6.12,6.12,0,0,0-4.9,3.62,6.41,6.41,0,0,0-1.45.07,6.13,6.13,0,0,0-4.83,4.33,6.15,6.15,0,0,0-3.48.56A6.27,6.27,0,0,0,25,38.22Z"/><path class="cls-3" d="M21.05,35.63a34.31,34.31,0,0,1,63,27h2.57A36.74,36.74,0,0,0,18.88,34.53a36.47,36.47,0,0,0-3.79,13l2.42.23A33.91,33.91,0,0,1,21.05,35.63Z"/><path class="cls-4" d="M87.92,18.4l-6.65,6.94-3.44-1.77L76.72,20.8l6.17-7.37C76.71,11,71.4,14.65,69.16,16.61l-2.42-2.29-3.43,3.85,1,1.07a62.54,62.54,0,0,1-4.42,5.82c-1.31,1.26-8.05,4.17-11.75,5.87L10.3,48.31h0a5.21,5.21,0,0,0,4.62,9.33L57.39,35.58a20.64,20.64,0,0,1,13.26-2c3.81.56,6.21,1.1,8.48,1l.29,0h.1l.21,0h.1l.28,0h0l.3-.05.09,0,.22-.05.1,0,.3-.07h0l.31-.08.1,0L81.8,34l.1,0,.32-.11h0l.33-.12.1,0,.25-.11.1,0,.35-.15C87.49,31.46,89.26,24.41,87.92,18.4ZM14.15,56a3.36,3.36,0,1,1,1.65-4.46A3.35,3.35,0,0,1,14.15,56Z"/><path class="cls-3" d="M12.75,59.63A6.71,6.71,0,0,1,9.39,47.11a1.31,1.31,0,0,1,.28-.17l37.8-17.37,2.11-1c2.91-1.32,8.32-3.76,9.23-4.63a48.46,48.46,0,0,0,3.55-4.62l-.17-.19a1.49,1.49,0,0,1,0-2l3.43-3.85a1.52,1.52,0,0,1,1.06-.5,1.47,1.47,0,0,1,1.09.41l1.47,1.38c2.76-2.08,8.08-5,14.2-2.58a1.5,1.5,0,0,1,.6,2.36l-5.59,6.69L79,22.49l1.94,1,5.87-6.13a1.5,1.5,0,0,1,2.55.71,20.4,20.4,0,0,1-.25,9.77c-1,3.36-2.8,5.81-5.15,6.89l-.38.17-.11.05-.28.11-.1,0-.37.14h0l-.35.12-.11,0-.27.09-.1,0-.35.1h0l-.33.08-.11,0-.25.05-.12,0-.33.06h0l-.33,0-.11,0-.25,0h-.11l-.33,0a29.7,29.7,0,0,1-6.28-.59L70.43,35a19.28,19.28,0,0,0-12.38,1.92L15.61,59l-.06,0A6.71,6.71,0,0,1,12.75,59.63Zm0-8.58a1.91,1.91,0,0,0-.77.17,1.82,1.82,0,0,0-1,1.05,1.8,1.8,0,0,0,.05,1.42,1.82,1.82,0,0,0,1,1,1.8,1.8,0,0,0,1.42,0h0a1.82,1.82,0,0,0,1-1,1.8,1.8,0,0,0-.05-1.42,1.89,1.89,0,0,0-1.7-1.09Zm1.32-2.82a2.78,2.78,0,0,1,.38.12,4.86,4.86,0,0,1,2.87,6.25s0,.1,0,.14L56.7,34.25l.06,0A22.16,22.16,0,0,1,70.87,32c.92.14,1.78.27,2.54.4A27.08,27.08,0,0,0,79,33l.25,0h.08l.19,0h.08l.24,0h0l.26,0,.08,0,.19,0h.09l.25-.07h0l.26-.07.09,0,.2-.06.08,0,.29-.1h0l.28-.11.09,0,.23-.09.09,0,.31-.14c2.67-1.22,4.32-5.66,4.12-10.31l-4.49,4.69a1.5,1.5,0,0,1-1.77.29l-3.44-1.76a1.52,1.52,0,0,1-.7-.78l-1.11-2.77a1.48,1.48,0,0,1,.24-1.52l4.68-5.6c-4.41-.71-8.13,1.78-10.11,3.5a1.49,1.49,0,0,1-2,0l-1.3-1.23-1.51,1.69.07.07a1.52,1.52,0,0,1,.12,1.86,62,62,0,0,1-4.62,6.05C59.71,27.28,56,29,50.82,31.35l-2.09.94Z"/><path class="cls-5" d="M81.93,14.49l-4.82,5.77a1,1,0,0,0-.17,1l.38.94a1,1,0,0,1-1.53,1.18L69,18.33a1,1,0,0,1-.07-1.55c1.9-1.73,6.73-5.35,12.53-3.91A1,1,0,0,1,81.93,14.49Z"/><path class="cls-5" d="M83.35,33.29c3.75-1.72,5.55-7.67,4.86-13.24a.86.86,0,0,0-1.48-.49l-5.46,5.7L75,22l-7.52-7.12a.92.92,0,0,0-1.32.06l-2.26,2.52a.92.92,0,0,0,0,1.23l.41.46A62.54,62.54,0,0,1,59.85,25c-1.31,1.26-8.05,4.17-11.75,5.87L10.3,48.23h0a5.21,5.21,0,0,0,4.62,9.33L57.39,35.5a20.78,20.78,0,0,1,13.26-2C76.74,34.34,79.21,35.19,83.35,33.29Zm-69,22.53a3.37,3.37,0,1,1,1.6-4.14A3.38,3.38,0,0,1,14.31,55.82Z"/><path class="cls-2" d="M83.35,33.29c3.73-1.72,5.54-7.63,4.87-13.18a.89.89,0,0,0-1.53-.51l-5,5.18a.91.91,0,0,1-1.06.17l-5.61-2.88a1,1,0,0,1-.2-.15l-7.45-7a.89.89,0,0,0-1.28,0l-2.27,2.54a.9.9,0,0,0,0,1.22L78.82,34.11a1,1,0,0,0,.74.27A11.81,11.81,0,0,0,83.35,33.29Z"/><rect class="cls-6" x="64.52" y="22.39" width="5.11" height="5.11" rx="0.54" ry="0.54" transform="translate(2.2 55.16) rotate(-45.37)"/><path class="cls-7" d="M65.39,25.25a.49.49,0,0,1-.7,0h0a.5.5,0,0,1,0-.71l2-2a.48.48,0,0,1,.7,0h0a.49.49,0,0,1,0,.7Z"/><path class="cls-7" d="M66.45,26.29a.5.5,0,0,1-.71,0h0a.5.5,0,0,1,0-.71l2-2a.49.49,0,0,1,.7,0h0a.49.49,0,0,1,0,.7Z"/><path class="cls-7" d="M67.5,27.33a.49.49,0,0,1-.7,0h0a.49.49,0,0,1,0-.7l2-2a.49.49,0,0,1,.7,0h0a.49.49,0,0,1,0,.7Z"/><path class="cls-3" d="M27.39,42.89a6,6,0,0,0,.39.81c-1.29,1.22-1.59,3.82-1.57,5.58A19.42,19.42,0,0,0,28.44,58S26.75,65.46,27,70.26c.1,2.23.2,4.11.33,6.4a2.34,2.34,0,0,0,.29,1A35.06,35.06,0,0,0,31.86,81a68,68,0,0,0,7.9,3.29c5.46,2,12.73,2.36,14.32,2.42l.32,0L52.08,65.86c0-.69-.17-1.42-.28-2.19-.23-1.45-.53-3.44-.2-4.43a7.37,7.37,0,0,1,2.2-2.56c1.45-1.3,3.48-3.1,3.9-5.89A2.44,2.44,0,0,1,58.91,49a6.87,6.87,0,0,0,3.27-6.2,7,7,0,0,0-.84-3.31,4,4,0,0,0-.38-.67L56,31.38l-.07-.1L55.76,31a5.49,5.49,0,0,0,.48-3l-.36-3.26a5.78,5.78,0,0,0-1.7-3.57,5.51,5.51,0,0,0-8.11.55,5.85,5.85,0,0,0-.64,1,5.52,5.52,0,0,0-6.53,1.61A5.87,5.87,0,0,0,38,26a5.56,5.56,0,0,0-6.22,4.45,5.45,5.45,0,0,0-3.66.42A5.68,5.68,0,0,0,25.5,38Z"/><rect class="cls-8" x="29.43" y="33.19" width="4.83" height="10.32" rx="2.42" ry="2.42" transform="translate(-11.72 14.12) rotate(-21.21)"/><rect class="cls-8" x="35.79" y="28.95" width="4.83" height="13.14" rx="2.42" ry="2.42" transform="translate(-5.41 6.9) rotate(-9.64)"/><rect class="cls-8" x="41.35" y="25.36" width="4.83" height="9.3" rx="2.42" ry="2.42" transform="translate(-3.07 5.07) rotate(-6.4)"/><rect class="cls-8" x="48.46" y="22.75" width="4.83" height="8.32" rx="2.42" ry="2.42" transform="translate(-2.68 5.84) rotate(-6.4)"/><path class="cls-3" d="M56.42,66.87a1,1,0,0,1-1-1,1,1,0,0,1,1-1H66.59a1,1,0,0,1,1,1,1,1,0,0,1-1,1H62.5V76a1,1,0,0,1-1,1,1,1,0,0,1-1-1V66.87Z"/><path class="cls-3" d="M67.51,71a6.74,6.74,0,1,1,6.72,6.74A6.75,6.75,0,0,1,67.51,71Zm2,0a4.73,4.73,0,1,0,4.72-4.76A4.74,4.74,0,0,0,69.51,71Z"/><path class="cls-3" d="M89.42,64.88a3.54,3.54,0,1,1,0,7.08H84.51V76a1,1,0,1,1-2,0V65.88a1,1,0,0,1,1-1Zm0,5.08a1.54,1.54,0,1,0,0-3.08H84.51V70Z"/><path class="cls-3" d="M60.05,51.06a1,1,0,0,1,2-.29,4.34,4.34,0,1,1,0,7.29V60.8a1,1,0,0,1-1,1,1,1,0,0,1-1-1Zm2,3.65a2.34,2.34,0,1,0,0-.61Z"/><path class="cls-3" d="M69.64,51.06a1,1,0,0,1,1-1,1,1,0,0,1,1,.7,4.38,4.38,0,0,1,2.36-.7,4.34,4.34,0,1,1,0,8.67,4.28,4.28,0,0,1-2.31-.68V60.8a1,1,0,0,1-2,0Zm2,3.65a2.34,2.34,0,1,0,0-.61Z"/><path class="cls-9" d="M59.22,40.91a1.84,1.84,0,0,0-.15-.28l0-.05,0-.06-5.16-7.35-.07-.08c0-.06-.08-.14-.13-.2h0a2.42,2.42,0,0,0-3-.64,2.49,2.49,0,0,0-1,.76l-2,1.56a4.25,4.25,0,0,1,.07.8A4.82,4.82,0,0,1,44.28,40a2.43,2.43,0,0,0,.14.2c.82,1,3,.68,4.07-.14l2.15-1.7.49.82a4.83,4.83,0,0,1,.52,3.15,4.38,4.38,0,0,0,0,.52,3.94,3.94,0,0,0,.17,1.09,7.9,7.9,0,0,0-3.14-1.4,8.07,8.07,0,0,0-8.29,3.31,1.35,1.35,0,0,1-2.09.22A5.76,5.76,0,1,0,38,54.39a1.35,1.35,0,0,1,2.06.25l0,0a1.13,1.13,0,0,1-.87,1.75,9.67,9.67,0,0,0-3.5.89,10.57,10.57,0,0,0-5.9,10.46l.76,12.37a34.68,34.68,0,0,0,4.93,3,34.18,34.18,0,0,0,16.07,3.68L49.3,66.1c-.16-2.1-1.12-5.51-.32-7.86,1.32-3.89,6.79-5,5.91-9.45v0a1.66,1.66,0,0,1,1.42-1.94h.1a4.1,4.1,0,0,0,3.08-2.66A4,4,0,0,0,59.22,40.91Z"/><path class="cls-9" d="M43.92,39a3.79,3.79,0,0,0,2.72-3.63v0l-1.83,1.44A2.44,2.44,0,0,0,43.92,39Z"/><path class="cls-3" d="M70.22,80A34.31,34.31,0,0,1,18,57.75l-2.38.47A37.16,37.16,0,0,0,22.2,73.08,36.32,36.32,0,0,0,35.07,83.9,36.83,36.83,0,0,0,74.44,80Z"/></g></g></svg>